<?xml version="1.0" encoding="utf-8"?>
<svg version="1.1" xmlns:xlink="http://www.w3.org/1999/xlink" width="90px" height="20px" xmlns="http://www.w3.org/2000/svg">
  <g>
    <path d="M 1 10  A 9 9 0 0 1 10 1 L 80 1  A 9 9 0 0 1 89 10 A 9 9 0 0 1 80 19 L 10 19  A 9 9 0 0 1 1 10 Z " fill-rule="nonzero" fill="#000000" stroke="none" fill-opacity="0.2" />
    <path d="M 0.5 10  A 9.5 9.5 0 0 1 10 0.5 L 80 0.5  A 9.5 9.5 0 0 1 89.5 10 A 9.5 9.5 0 0 1 80 19.5 L 10 19.5  A 9.5 9.5 0 0 1 0.5 10 Z " stroke-width="1" stroke="#000000" fill="none" stroke-opacity="0.2" />
  </g>
</svg>