<?xml version="1.0" encoding="utf-8"?>
<svg version="1.1" xmlns:xlink="http://www.w3.org/1999/xlink" width="10px" height="10px" xmlns="http://www.w3.org/2000/svg">
  <g transform="matrix(1 0 0 1 -39 -5 )">
    <path d="M 40 10  A 4 4 0 0 1 44 6 A 4 4 0 0 1 48 10 A 4 4 0 0 1 44 14 A 4 4 0 0 1 40 10 Z " fill-rule="nonzero" fill="#e2e2e2" stroke="none" fill-opacity="0.498039215686275" />
    <path d="M 39.5 10  A 4.5 4.5 0 0 1 44 5.5 A 4.5 4.5 0 0 1 48.5 10 A 4.5 4.5 0 0 1 44 14.5 A 4.5 4.5 0 0 1 39.5 10 Z " stroke-width="1" stroke="#e2e2e2" fill="none" stroke-opacity="0.498039215686275" />
  </g>
</svg>