<?xml version="1.0" encoding="utf-8"?>
<svg version="1.1" xmlns:xlink="http://www.w3.org/1999/xlink" width="1196px" height="265px" xmlns="http://www.w3.org/2000/svg">
  <g>
    <path d="M 0 0  L 1196 0  L 1196 265  L 0 265  L 0 0  " fill-rule="nonzero" fill="#cccccc" stroke="none" />
    <path d="M 19 19  L 1177 19  L 1177 246  L 19 246  L 19 19  " fill-rule="nonzero" fill="#ffffff" stroke="none" />
    <path d="M 641.795 79.5  C 630.665 79.5  621.92 70.755  621.92 59.625  C 621.92 48.495  630.665 39.75  641.795 39.75  C 652.925 39.75  661.67 48.495  661.67 59.625  C 661.67 70.755  652.925 79.5  641.795 79.5  " fill-rule="nonzero" fill="#cccccc" stroke="none" />
    <path d="M 26 240  L 26 122.3  L 312.25 68.8  L 713 211.55016722408  L 942 100.9  L 1171 211.55016722408  L 1171 240  L 26 240  " fill-rule="nonzero" fill="#169bd5" stroke="none" />
  </g>
</svg>