<?xml version="1.0" encoding="utf-8"?>
<svg version="1.1" xmlns:xlink="http://www.w3.org/1999/xlink" width="36px" height="36px" xmlns="http://www.w3.org/2000/svg">
  <g transform="matrix(1 0 0 1 -390 -124 )">
    <path d="M 408 124.5  C 417.8 124.5  425.5 132.2  425.5 142  C 425.5 151.8  417.8 159.5  408 159.5  C 398.2 159.5  390.5 151.8  390.5 142  C 390.5 132.2  398.2 124.5  408 124.5  Z " fill-rule="nonzero" fill="#000000" stroke="none" fill-opacity="0.2" />
    <path d="M 408 124.5  C 417.8 124.5  425.5 132.2  425.5 142  C 425.5 151.8  417.8 159.5  408 159.5  C 398.2 159.5  390.5 151.8  390.5 142  C 390.5 132.2  398.2 124.5  408 124.5  Z " stroke-width="1" stroke="#000000" fill="none" stroke-opacity="0.2" />
  </g>
</svg>