<?xml version="1.0" encoding="utf-8"?>
<svg version="1.1" xmlns:xlink="http://www.w3.org/1999/xlink" width="114px" height="154px" xmlns="http://www.w3.org/2000/svg">
  <defs>
    <mask fill="white" id="clip67">
      <path d="M 0.814285714285714 0.566178575066176  C 0.814285714285714 0.566178575066176  0.814285714285714 42.6557331896397  0.814285714285714 42.6557331896397  C 40.4374039205463 42.6557331896397  73.6440020178 77.2887757098017  73.6440020178 118.613970588235  C 73.6440020178 126.224559956459  72.5307456616407 133.79060933502  70.342654652054 141.050992435739  C 70.342654652054 141.050992435739  108.841642961151 153.671815607917  108.841642961151 153.671815607917  C 112.260535005934 142.327467536302  113.9999979822 130.505515927588  113.9999979822 118.613970588235  C 113.9999979822 54.0433565690024  62.7254050559174 0.566178575066176  0.814285714285653 0.566178575066176  Z " fill-rule="evenodd" />
    </mask>
  </defs>
  <g transform="matrix(1 0 0 1 -430 -389 )">
    <path d="M 0.814285714285714 0.566178575066176  C 0.814285714285714 0.566178575066176  0.814285714285714 42.6557331896397  0.814285714285714 42.6557331896397  C 40.4374039205463 42.6557331896397  73.6440020178 77.2887757098017  73.6440020178 118.613970588235  C 73.6440020178 126.224559956459  72.5307456616407 133.79060933502  70.342654652054 141.050992435739  C 70.342654652054 141.050992435739  108.841642961151 153.671815607917  108.841642961151 153.671815607917  C 112.260535005934 142.327467536302  113.9999979822 130.505515927588  113.9999979822 118.613970588235  C 113.9999979822 54.0433565690024  62.7254050559174 0.566178575066176  0.814285714285653 0.566178575066176  Z " fill-rule="nonzero" fill="#7f7f7f" stroke="none" transform="matrix(1 0 0 1 430 389 )" />
    <path d="M 0.814285714285714 0.566178575066176  C 0.814285714285714 0.566178575066176  0.814285714285714 42.6557331896397  0.814285714285714 42.6557331896397  C 40.4374039205463 42.6557331896397  73.6440020178 77.2887757098017  73.6440020178 118.613970588235  C 73.6440020178 126.224559956459  72.5307456616407 133.79060933502  70.342654652054 141.050992435739  C 70.342654652054 141.050992435739  108.841642961151 153.671815607917  108.841642961151 153.671815607917  C 112.260535005934 142.327467536302  113.9999979822 130.505515927588  113.9999979822 118.613970588235  C 113.9999979822 54.0433565690024  62.7254050559174 0.566178575066176  0.814285714285653 0.566178575066176  Z " stroke-width="2" stroke="#ffffff" fill="none" transform="matrix(1 0 0 1 430 389 )" mask="url(#clip67)" />
  </g>
</svg>