<?xml version="1.0" encoding="utf-8"?>
<svg version="1.1" xmlns:xlink="http://www.w3.org/1999/xlink" width="150px" height="96px" xmlns="http://www.w3.org/2000/svg">
  <defs>
    <mask fill="white" id="clip68">
      <path d="M 149.189440656199 13.2256092113797  C 149.189440656199 13.2256092113797  110.923691200925 0.63756739809073  110.923691200925 0.63756739809073  C 101.584359045477 31.7346441336105  72.9625604146077 54.0197668048941  41.8165467625899 54.0197668048941  C 32.7405023869588 54.0197668048941  23.7478939566372 51.077018512563  15.3215758568629 47.5477118111421  C 15.3215758568629 47.5477118111421  0.4181566318922 87.6521182406496  0.4181566318922 87.6521182406496  C 13.5842780555023 93.1666597072617  27.6352280797795 95.9999979009882  41.81654676259 95.9999979009882  C 90.482190849165 95.9999979009882  134.596734836401 61.8147893694534  149.189440656199 13.2256092113797  Z " fill-rule="evenodd" />
    </mask>
  </defs>
  <g transform="matrix(1 0 0 1 -389 -529 )">
    <path d="M 149.189440656199 13.2256092113797  C 149.189440656199 13.2256092113797  110.923691200925 0.63756739809073  110.923691200925 0.63756739809073  C 101.584359045477 31.7346441336105  72.9625604146077 54.0197668048941  41.8165467625899 54.0197668048941  C 32.7405023869588 54.0197668048941  23.7478939566372 51.077018512563  15.3215758568629 47.5477118111421  C 15.3215758568629 47.5477118111421  0.4181566318922 87.6521182406496  0.4181566318922 87.6521182406496  C 13.5842780555023 93.1666597072617  27.6352280797795 95.9999979009882  41.81654676259 95.9999979009882  C 90.482190849165 95.9999979009882  134.596734836401 61.8147893694534  149.189440656199 13.2256092113797  Z " fill-rule="nonzero" fill="#333333" stroke="none" fill-opacity="0.847058823529412" transform="matrix(1 0 0 1 389 529 )" />
    <path d="M 149.189440656199 13.2256092113797  C 149.189440656199 13.2256092113797  110.923691200925 0.63756739809073  110.923691200925 0.63756739809073  C 101.584359045477 31.7346441336105  72.9625604146077 54.0197668048941  41.8165467625899 54.0197668048941  C 32.7405023869588 54.0197668048941  23.7478939566372 51.077018512563  15.3215758568629 47.5477118111421  C 15.3215758568629 47.5477118111421  0.4181566318922 87.6521182406496  0.4181566318922 87.6521182406496  C 13.5842780555023 93.1666597072617  27.6352280797795 95.9999979009882  41.81654676259 95.9999979009882  C 90.482190849165 95.9999979009882  134.596734836401 61.8147893694534  149.189440656199 13.2256092113797  Z " stroke-width="2" stroke="#ffffff" fill="none" transform="matrix(1 0 0 1 389 529 )" mask="url(#clip68)" />
  </g>
</svg>