<?xml version="1.0" encoding="utf-8"?>
<svg version="1.1" xmlns:xlink="http://www.w3.org/1999/xlink" width="85px" height="97px" xmlns="http://www.w3.org/2000/svg">
  <defs>
    <mask fill="white" id="clip293">
      <path d="M 69.2776810637811 96.5585894978386  C 69.2776810637811 96.5585894978386  84.1370817509565 57.6355237261224  84.1370817509565 57.6355237261224  C 61.4341531564604 48.1110928552986  43.9175130655202 25.8967402410025  39.5318945774818 0.678033791722611  C 39.5318945774818 0.678033791722611  0.187300761379856 8.19696317341297  0.187300761379856 8.19696317341294  C 7.03982933286704 47.6011901828928  33.804356771088 81.6766669486051  69.2776810637811 96.5585894978386  Z " fill-rule="evenodd" />
    </mask>
  </defs>
  <g transform="matrix(1 0 0 1 -321 -519 )">
    <path d="M 69.2776810637811 96.5585894978386  C 69.2776810637811 96.5585894978386  84.1370817509565 57.6355237261224  84.1370817509565 57.6355237261224  C 61.4341531564604 48.1110928552986  43.9175130655202 25.8967402410025  39.5318945774818 0.678033791722611  C 39.5318945774818 0.678033791722611  0.187300761379856 8.19696317341297  0.187300761379856 8.19696317341294  C 7.03982933286704 47.6011901828928  33.804356771088 81.6766669486051  69.2776810637811 96.5585894978386  Z " fill-rule="nonzero" fill="#00ce70" stroke="none" transform="matrix(1 0 0 1 321 519 )" />
    <path d="M 69.2776810637811 96.5585894978386  C 69.2776810637811 96.5585894978386  84.1370817509565 57.6355237261224  84.1370817509565 57.6355237261224  C 61.4341531564604 48.1110928552986  43.9175130655202 25.8967402410025  39.5318945774818 0.678033791722611  C 39.5318945774818 0.678033791722611  0.187300761379856 8.19696317341297  0.187300761379856 8.19696317341294  C 7.03982933286704 47.6011901828928  33.804356771088 81.6766669486051  69.2776810637811 96.5585894978386  Z " stroke-width="2" stroke="#ffffff" fill="none" transform="matrix(1 0 0 1 321 519 )" mask="url(#clip293)" />
  </g>
</svg>