<?xml version="1.0" encoding="utf-8"?>
<svg version="1.1" xmlns:xlink="http://www.w3.org/1999/xlink" width="43px" height="34px" xmlns="http://www.w3.org/2000/svg">
  <defs>
    <mask fill="white" id="clip70">
      <path d="M 2.33713549600217 33.1697320684053  C 2.33713549600217 33.1697320684053  42.7220134940311 25.6146291432979  42.7220134940311 25.6146291432979  C 41.5887104522478 19.0606393413195  41.2899745881704 11.243192871443  41.8337139018236 4.60589520549543  C 41.8337139018236 4.60589520549543  0.949167447197951 0.981086723015227  0.949167447197981 0.981086723015227  C 0.0995748088023923 11.3518638477062  0.566349574893329 22.9291234751621  2.33713549600217 33.1697320684053  Z " fill-rule="evenodd" />
    </mask>
  </defs>
  <g transform="matrix(1 0 0 1 -318 -496 )">
    <path d="M 2.33713549600217 33.1697320684053  C 2.33713549600217 33.1697320684053  42.7220134940311 25.6146291432979  42.7220134940311 25.6146291432979  C 41.5887104522478 19.0606393413195  41.2899745881704 11.243192871443  41.8337139018236 4.60589520549543  C 41.8337139018236 4.60589520549543  0.949167447197951 0.981086723015227  0.949167447197981 0.981086723015227  C 0.0995748088023923 11.3518638477062  0.566349574893329 22.9291234751621  2.33713549600217 33.1697320684053  Z " fill-rule="nonzero" fill="#7f7f7f" stroke="none" fill-opacity="0.847058823529412" transform="matrix(1 0 0 1 318 496 )" />
    <path d="M 2.33713549600217 33.1697320684053  C 2.33713549600217 33.1697320684053  42.7220134940311 25.6146291432979  42.7220134940311 25.6146291432979  C 41.5887104522478 19.0606393413195  41.2899745881704 11.243192871443  41.8337139018236 4.60589520549543  C 41.8337139018236 4.60589520549543  0.949167447197951 0.981086723015227  0.949167447197981 0.981086723015227  C 0.0995748088023923 11.3518638477062  0.566349574893329 22.9291234751621  2.33713549600217 33.1697320684053  Z " stroke-width="2" stroke="#ffffff" fill="none" transform="matrix(1 0 0 1 318 496 )" mask="url(#clip70)" />
  </g>
</svg>