<?xml version="1.0" encoding="utf-8"?>
<svg version="1.1" xmlns:xlink="http://www.w3.org/1999/xlink" width="114px" height="114px" xmlns="http://www.w3.org/2000/svg">
  <defs>
    <mask fill="white" id="clip295">
      <path d="M 0.958627587867698 109.286857821386  C 0.958627587867698 109.286857821386  41.1649469307454 112.932988706704  41.1649469307454 112.932988706704  C 44.3684937297709 73.9861928496202  76.4983013018168 42.94379788131  113.728571428571 42.94379788131  C 113.728571428571 42.94379788131  113.728571428571 0.570002118689999  113.728571428571 0.570002118689999  C 55.5562770387144 0.570002118689999  5.96416923046452 48.4324921015998  0.958627587867698 109.286857821386  Z " fill-rule="evenodd" />
    </mask>
  </defs>
  <g transform="matrix(1 0 0 1 -318 -389 )">
    <path d="M 0.958627587867698 109.286857821386  C 0.958627587867698 109.286857821386  41.1649469307454 112.932988706704  41.1649469307454 112.932988706704  C 44.3684937297709 73.9861928496202  76.4983013018168 42.94379788131  113.728571428571 42.94379788131  C 113.728571428571 42.94379788131  113.728571428571 0.570002118689999  113.728571428571 0.570002118689999  C 55.5562770387144 0.570002118689999  5.96416923046452 48.4324921015998  0.958627587867698 109.286857821386  Z " fill-rule="nonzero" fill="#2589ff" stroke="none" transform="matrix(1 0 0 1 318 389 )" />
    <path d="M 0.958627587867698 109.286857821386  C 0.958627587867698 109.286857821386  41.1649469307454 112.932988706704  41.1649469307454 112.932988706704  C 44.3684937297709 73.9861928496202  76.4983013018168 42.94379788131  113.728571428571 42.94379788131  C 113.728571428571 42.94379788131  113.728571428571 0.570002118689999  113.728571428571 0.570002118689999  C 55.5562770387144 0.570002118689999  5.96416923046452 48.4324921015998  0.958627587867698 109.286857821386  Z " stroke-width="2" stroke="#ffffff" fill="none" transform="matrix(1 0 0 1 318 389 )" mask="url(#clip295)" />
  </g>
</svg>