<?xml version="1.0" encoding="utf-8"?>
<svg version="1.1" xmlns:xlink="http://www.w3.org/1999/xlink" width="114px" height="113px" xmlns="http://www.w3.org/2000/svg">
  <defs>
    <mask fill="white" id="clip71">
      <path d="M 0.958627587867682 109.286857821386  C 0.958627587867682 109.286857821386  41.1649469307454 112.932988706704  41.1649469307454 112.932988706704  C 42.8020949312418 93.0295276483046  51.99374832533 75.1904135725973  65.5599733990093 62.5037817342207  C 78.5399352897758 50.3654015370792  95.5245450621691 42.94379788131  113.728571428571 42.94379788131  C 113.728571428571 42.94379788131  113.728571428571 0.570002118690013  113.728571428571 0.570002118690013  C 55.5562770387144 0.570002118690013  5.96416923046451 48.4324921015998  0.958627587867682 109.286857821386  Z " fill-rule="evenodd" />
    </mask>
  </defs>
  <g transform="matrix(1 0 0 1 -318 -389 )">
    <path d="M 0.958627587867682 109.286857821386  C 0.958627587867682 109.286857821386  41.1649469307454 112.932988706704  41.1649469307454 112.932988706704  C 42.8020949312418 93.0295276483046  51.99374832533 75.1904135725973  65.5599733990093 62.5037817342207  C 78.5399352897758 50.3654015370792  95.5245450621691 42.94379788131  113.728571428571 42.94379788131  C 113.728571428571 42.94379788131  113.728571428571 0.570002118690013  113.728571428571 0.570002118690013  C 55.5562770387144 0.570002118690013  5.96416923046451 48.4324921015998  0.958627587867682 109.286857821386  Z " fill-rule="nonzero" fill="#7f7f7f" stroke="none" transform="matrix(1 0 0 1 318 389 )" />
    <path d="M 0.958627587867682 109.286857821386  C 0.958627587867682 109.286857821386  41.1649469307454 112.932988706704  41.1649469307454 112.932988706704  C 42.8020949312418 93.0295276483046  51.99374832533 75.1904135725973  65.5599733990093 62.5037817342207  C 78.5399352897758 50.3654015370792  95.5245450621691 42.94379788131  113.728571428571 42.94379788131  C 113.728571428571 42.94379788131  113.728571428571 0.570002118690013  113.728571428571 0.570002118690013  C 55.5562770387144 0.570002118690013  5.96416923046451 48.4324921015998  0.958627587867682 109.286857821386  Z " stroke-width="2" stroke="#ffffff" fill="none" transform="matrix(1 0 0 1 318 389 )" mask="url(#clip71)" />
  </g>
</svg>