<?xml version="1.0" encoding="utf-8"?>
<svg version="1.1" xmlns:xlink="http://www.w3.org/1999/xlink" width="15px" height="15px" xmlns="http://www.w3.org/2000/svg">
  <g transform="matrix(1 0 0 1 -151 -148 )">
    <path d="M 158.5 148  C 162.7 148  166 151.3  166 155.5  C 166 159.7  162.7 163  158.5 163  C 154.3 163  151 159.7  151 155.5  C 151 151.3  154.3 148  158.5 148  Z " fill-rule="nonzero" fill="#ffffff" stroke="none" />
    <path d="M 158.5 148.5  C 162.42 148.5  165.5 151.58  165.5 155.5  C 165.5 159.42  162.42 162.5  158.5 162.5  C 154.58 162.5  151.5 159.42  151.5 155.5  C 151.5 151.58  154.58 148.5  158.5 148.5  Z " stroke-width="1" stroke="#797979" fill="none" />
  </g>
</svg>