<?xml version="1.0" encoding="utf-8"?>
<svg version="1.1" xmlns:xlink="http://www.w3.org/1999/xlink" width="14px" height="14px" xmlns="http://www.w3.org/2000/svg">
  <g transform="matrix(1 0 0 1 -689 -569 )">
    <path d="M 696 570  C 699.36 570  702 572.64  702 576  C 702 579.36  699.36 582  696 582  C 692.64 582  690 579.36  690 576  C 690 572.64  692.64 570  696 570  Z " fill-rule="nonzero" fill="#ffffff" stroke="none" />
    <path d="M 696 570  C 699.36 570  702 572.64  702 576  C 702 579.36  699.36 582  696 582  C 692.64 582  690 579.36  690 576  C 690 572.64  692.64 570  696 570  Z " stroke-width="2" stroke="#555555" fill="none" />
  </g>
</svg>