<?xml version="1.0" encoding="utf-8"?>
<svg version="1.1" xmlns:xlink="http://www.w3.org/1999/xlink" width="790px" height="187px" xmlns="http://www.w3.org/2000/svg">
  <g transform="matrix(1 0 0 1 -77 -213 )">
    <path d="M 0 146.348837209302  C 0 146.348837209302  38.2249994854438 160.16791188175  83.0139664804469 139.860465116279  C 123.336614405341 121.578060293927  124.759555815711 180.461203617989  168.966480446927 177.348837209302  C 215.231000706034 174.09160681  205.228523449097 137.369465067897  249.041899441341 128.325581395349  C 299.050799415373 118.002828041731  280.794569886468 87.9678722910436  329.851955307263 82.1860465116279  C 371.686908023917 77.255445216369  363.62971961859 114.512963083496  406.254189944134 111.023255813953  C 458.1427374699 106.775089440889  450.11106652913 54.4649460005  497.349162011173 59.1162790697674  C 543.425497751427 63.6532186299319  529.367491298997 67.6329699196907  570.078212290503 64.8837209302326  C 617.83673535496 61.6585245182021  607.863440329859 43.466001947553  658.234636871508 5.76744186046516  C 700.124449798706 -25.5835233358271  712.291666666667 97.3255813953488  739.962988826816 82.1860465116279  C 756.614757914339 74.9767441860465  788.449022346369 185.459302325581  788.449022346369 185.459302325581  " stroke-width="1" stroke="#ff6633" fill="none" transform="matrix(1 0 0 1 77 213 )" />
  </g>
</svg>