<?xml version="1.0" encoding="utf-8"?>
<svg version="1.1" xmlns:xlink="http://www.w3.org/1999/xlink" width="790px" height="249px" xmlns="http://www.w3.org/2000/svg">
  <g transform="matrix(1 0 0 1 -77 -179 )">
    <path d="M 0 201.994202898551  C 0 201.994202898551  38.2249994854438 215.773222282093  83.0139664804469 195.524637681159  C 123.336614405341 177.295225336554  124.759555815711 236.007692882865  168.966480446927 232.904347826087  C 215.231000706034 229.656558674319  173.05142847703 226.82636516915  216.864804469274 217.808695652174  C 266.873704443306 207.515863322769  271.832000054066 28.6241972988957  320.88938547486 22.8591304347827  C 362.724338191515 17.942820737481  372.592289450993 244.470896523833  415.216759776536 240.991304347826  C 467.105307302302 236.755451500481  450.11106652913 110.376641809194  497.349162011173 115.014492753623  C 543.425497751427 119.538281764338  524.371960572739 249.016062760503  565.082681564246 246.274782608696  C 612.841204628702 243.058934592062  658.234636871508 61.8202898550725  658.234636871508 61.8202898550725  C 658.234636871508 61.8202898550725  681.987895716946 15.5269565217391  709.659217877095 0.431304347826062  C 726.310986964618 -6.75710144927535  788.449022346369 240.991304347826  788.449022346369 240.991304347826  " stroke-width="1" stroke="#ffcc66" fill="none" transform="matrix(1 0 0 1 77 179 )" />
  </g>
</svg>