<?xml version="1.0" encoding="utf-8"?>
<svg version="1.1" xmlns:xlink="http://www.w3.org/1999/xlink" width="780px" height="219px" xmlns="http://www.w3.org/2000/svg">
  <g transform="matrix(1 0 0 1 -77 -217 )">
    <path d="M 0 216.920792079208  C 0 216.920792079208  28.7122987340074 187.18386095811  73.5599622285175 166.917491749175  C 113.935453486108 148.672068263097  107.268663833795 149.878347994787  151.533522190746 146.772277227723  C 197.858672680304 143.52163549845  191.506882601863 165.271298725773  235.377676569445 156.245708866679  C 285.452113830216 145.943836202268  269.392960713629 114.410394427365  318.514636449481 108.640264026403  C 360.40441439311 103.719636267246  354.543465808808 135.146014685903  397.223796033994 131.663366336634  C 449.180344148044 127.423793081965  439.666948357827 83.8531250727869  486.966949952786 88.4950495049505  C 533.103669305333 93.022811821248  523.440837393936 149.515965083273  564.204910292729 146.772277227723  C 612.026021496935 143.553604687919  593.948060499258 104.533195172614  644.385269121813 66.9108910891089  C 686.329979170976 35.6233420898495  699.800440667296 36.6930693069307  727.508026440038 21.5841584158416  C 744.181617878502 14.3894389438944  777.52880075543 0  777.52880075543 0  " stroke-width="1" stroke="#555555" fill="none" transform="matrix(1 0 0 1 77 217 )" />
  </g>
</svg>