<?xml version="1.0" encoding="utf-8"?>
<svg version="1.1" xmlns:xlink="http://www.w3.org/1999/xlink" width="121px" height="41px" xmlns="http://www.w3.org/2000/svg">
  <defs>
    <mask fill="white" id="clip73">
      <path d="M 0 41  L 0 22.5254237288142  L 0 0  L 20.898305084747 0  L 121 0  L 121 41  L 0 41  Z " fill-rule="evenodd" />
    </mask>
  </defs>
  <g transform="matrix(1 0 0 1 -593 -79 )">
    <path d="M 0 41  L 0 22.5254237288142  L 0 0  L 20.898305084747 0  L 121 0  L 121 41  L 0 41  Z " fill-rule="nonzero" fill="#f2f2f2" stroke="none" transform="matrix(1 0 0 1 593 79 )" />
    <path d="M 0 41  L 0 22.5254237288142  L 0 0  L 20.898305084747 0  L 121 0  L 121 41  L 0 41  Z " stroke-width="2" stroke="#000000" fill="none" stroke-opacity="0.2" transform="matrix(1 0 0 1 593 79 )" mask="url(#clip73)" />
  </g>
</svg>