<?xml version="1.0" encoding="utf-8"?>
<svg version="1.1" xmlns:xlink="http://www.w3.org/1999/xlink" width="101px" height="4px" xmlns="http://www.w3.org/2000/svg">
  <g transform="matrix(1 0 0 1 -597 -573 )">
    <path d="M 598 575  A 1 1 0 0 1 599 574 L 696 574  A 1 1 0 0 1 697 575 A 1 1 0 0 1 696 576 L 599 576  A 1 1 0 0 1 598 575 Z " fill-rule="nonzero" fill="#108ee9" stroke="none" fill-opacity="0.6" />
    <path d="M 597.5 575  A 1.5 1.5 0 0 1 599 573.5 L 696 573.5  A 1.5 1.5 0 0 1 697.5 575 A 1.5 1.5 0 0 1 696 576.5 L 599 576.5  A 1.5 1.5 0 0 1 597.5 575 Z " stroke-width="1" stroke="#108ee9" fill="none" stroke-opacity="0.6" />
  </g>
</svg>