<?xml version="1.0" encoding="utf-8"?>
<svg version="1.1" xmlns:xlink="http://www.w3.org/1999/xlink" width="88px" height="88px" xmlns="http://www.w3.org/2000/svg">
  <g transform="matrix(1 0 0 1 -595 -451 )">
    <path d="M 596 455  A 3 3 0 0 1 599 452 L 679 452  A 3 3 0 0 1 682 455 L 682 535  A 3 3 0 0 1 679 538 L 599 538  A 3 3 0 0 1 596 535 L 596 455  Z " fill-rule="nonzero" fill="#f2f2f2" stroke="none" />
    <path d="M 595.5 455  A 3.5 3.5 0 0 1 599 451.5 L 679 451.5  A 3.5 3.5 0 0 1 682.5 455 L 682.5 535  A 3.5 3.5 0 0 1 679 538.5 L 599 538.5  A 3.5 3.5 0 0 1 595.5 535 L 595.5 455  Z " stroke-width="1" stroke-dasharray="3,1" stroke="#d8d8d8" fill="none" stroke-dashoffset="0.5" />
  </g>
</svg>