<?xml version="1.0" encoding="utf-8"?>
<svg version="1.1" xmlns:xlink="http://www.w3.org/1999/xlink" width="6px" height="11px" xmlns="http://www.w3.org/2000/svg">
  <g transform="matrix(1 0 0 1 -883 -664 )">
    <path d="M 5.548828125 10.3876953125  C 5.71054687499999 10.2229817708334  5.71054687499999 9.95084635416663  5.54765624999999 9.78493923611109  L 1.42851562499999 5.58951822916663  C 1.40625 5.56684027777783  1.39218749999999 5.53580729166663  1.39218749999999 5.5  C 1.39218749999999 5.46419270833337  1.40625 5.43315972222217  1.4296875 5.40928819444446  L 5.54765624999999 1.21506076388891  C 5.71054687499999 1.04915364583337  5.71054687499999 0.777018229166629  5.54765624999999 0.611111111111086  C 5.384765625 0.445203993055543  5.11757812500001 0.445203993055543  4.95468749999999 0.611111111111086  L 0.452343750000011 5.19802517361109  C 0.289453125000009 5.36393229166663  0.289453125000009 5.63606770833337  0.452343750000011 5.80197482638891  C 0.453515625000009 5.80316840277783  0.453515625000009 5.80316840277783  0.454687499999991 5.80316840277783  L 4.95585937499999 10.3876953125  C 5.11874999999999 10.5536024305555  5.38593750000001 10.5536024305555  5.548828125 10.3876953125  Z " fill-rule="nonzero" fill="#1677ff" stroke="none" transform="matrix(1 0 0 1 883 664 )" />
  </g>
</svg>