<?xml version="1.0" encoding="utf-8"?>
<svg version="1.1" xmlns:xlink="http://www.w3.org/1999/xlink" width="6px" height="10px" xmlns="http://www.w3.org/2000/svg">
  <g transform="matrix(1 0 0 1 -13 -10 )">
    <path d="M 0.442105263157895 0.125  C 0.189473684210526 0.25  0.315789473684211 0.875  0.442105263157895 1.125  L 4.48421052631579 5  L 0.56842105263158 8.875  C 0.315789473684211 9.125  0.315789473684211 9.5  0.56842105263158 9.75  C 0.821052631578949 10  1.2 10  1.45263157894737 9.75  L 5.87368421052632 5.375  C 6 5.375  6 5.125  6 5  C 6 4.875  6 4.625  5.87368421052632 4.5  L 1.45263157894737 0.125  C 1.2 0  0.694736842105261 0  0.442105263157895 0.125  Z " fill-rule="nonzero" fill="#1677ff" stroke="none" transform="matrix(1 0 0 1 13 10 )" />
  </g>
</svg>